<?xml version="1.0" encoding="utf-8"?>
<!-- Svg Vector Icons : http://www.onlinewebfonts.com/icon -->
<!DOCTYPE svg PUBLIC "-//W3C//DTD SVG 1.1//EN" "http://www.w3.org/Graphics/SVG/1.1/DTD/svg11.dtd">
<svg version="1.1" xmlns="http://www.w3.org/2000/svg" xmlns:xlink="http://www.w3.org/1999/xlink" x="0px" y="0px" viewBox="0 0 1000 1000" enable-background="new 0 0 1000 1000" xml:space="preserve">
<metadata> Svg Vector Icons : http://www.onlinewebfonts.com/icon </metadata>
<g><g transform="translate(0.000000,511.000000) scale(0.100000,-0.100000)"><path d="M1090.7,4974.6c-350.1-73.9-696.3-348.1-853.8-672.9c-149.8-307.3-140-1.9-134.2-4251.6l5.8-3806.2l54.5-159.5c130.3-385.1,422.1-674.9,820.8-816.9l155.6-54.5H5000h3860.7l155.6,54.5c398.7,142,690.4,431.8,820.8,816.9l54.5,159.5l5.8,3792.6c5.8,4247.7,15.6,3954-136.2,4267.2c-155.6,326.8-505.7,599-861.6,672.9C8701.2,5017.4,1285.2,5017.4,1090.7,4974.6z M8625.4,4447.6c334.5-126.4,591.3-381.2,715.7-711.8l44.7-120.6l5.8-3448.4c3.9-3032.1,0-3463.9-25.3-3574.8c-87.5-373.4-355.9-671-744.9-822.7l-130.3-50.6l-3423.1-5.8C1256-4292.9,1505-4300.7,1221-4160.7c-184.8,93.4-387.1,293.7-486.2,484.3C596.7-3408,604.5-3660.8,604.5,104.5c0,3738.2-7.8,3506.7,120.6,3771.2c85.6,177,328.7,420.1,501.8,503.7c260.6,126.4,0,118.6,3812.1,114.8l3471.7-3.9L8625.4,4447.6z"/><path d="M2312.1,1714.9c-3.9-77.8-1.9-217.8,0-311.2l7.8-171.2h2691.8h2691.8v311.2V1855H5011.7H2319.9L2312.1,1714.9z"/><path d="M2316,425.4c-1.9,0-3.9-425.9-1.9-529l1.9-103.1h2693.7h2693.7v311.2v311.2h-149.8C7452.6,417.7,2594.1,425.4,2316,425.4z"/><path d="M2314.1-1072.1c0-27.2,0-149.8,0-272.3s0-241.2,0-262.6c1.9-38.9,15.6-38.9,2695.7-38.9h2693.7v311.2v311.2H5009.7H2316L2314.1-1072.1z"/></g></g>
</svg>